<svg width="351" height="603" viewBox="0 0 351 603" fill="none" xmlns="http://www.w3.org/2000/svg">
<path d="M-211.242 837.423C-259.634 835.084 -243.137 742.301 -131.85 656.776C7.25822 549.87 273.601 577.803 318.475 482.41C363.349 387.016 258.735 170.554 405.25 159.921C522.463 151.415 645.658 282.122 685.015 322.936" stroke="#0ABAB5" stroke-opacity="0.4"/>
<path d="M-324.783 795.793C-373.175 793.453 -356.678 700.67 -245.392 615.146C-106.283 508.24 42.1895 510.061 135.58 428.191C241.34 335.478 223.27 176.15 351.558 104.458C495.931 23.7778 677.658 4.94941 670.556 194.739" stroke="#0ABAB5" stroke-opacity="0.4"/>
<path d="M-218.687 833.677C-267.079 831.338 -250.582 738.555 -139.295 653.03C-0.186639 546.124 258.789 572.425 306.696 477.877C355.375 382.651 256.17 169.76 401.546 155.311C520.456 142.293 647.309 263.654 683.763 313.78" stroke="#0ABAB5" stroke-opacity="0.4"/>
<path d="M-226.116 829.985C-274.508 827.646 -258.011 734.863 -146.724 649.338C-7.61592 542.432 243.993 567.102 294.932 473.399C347.417 378.34 253.62 169.02 397.857 150.754C518.465 133.226 648.976 245.241 682.526 304.678" stroke="#0ABAB5" stroke-opacity="0.4"/>
<path d="M-233.526 826.353C-281.918 824.014 -265.421 731.231 -154.134 645.706C-15.026 538.8 229.216 561.838 283.187 468.98C339.477 374.089 251.09 168.339 394.188 146.258C516.493 124.219 650.663 226.888 681.309 295.635" stroke="#0ABAB5" stroke-opacity="0.4"/>
<path d="M-240.917 822.787C-289.309 820.447 -272.812 727.664 -161.525 642.14C-22.4169 535.234 214.458 556.639 271.462 464.627C331.557 369.903 248.579 167.724 390.538 141.827C514.54 115.277 652.368 208.6 680.111 286.658" stroke="#0ABAB5" stroke-opacity="0.4"/>
<path d="M-248.286 819.294C-296.678 816.954 -280.181 724.171 -168.894 638.646C-29.7857 531.741 199.723 551.514 259.758 460.346C323.659 365.791 246.09 167.183 386.909 137.469C512.609 106.408 654.096 190.385 678.935 277.755" stroke="#0ABAB5" stroke-opacity="0.4"/>
<path d="M-255.629 815.881C-304.021 813.541 -287.524 720.758 -176.237 635.233C-37.1288 528.328 185.013 546.469 248.081 456.147C315.787 361.758 243.627 166.721 383.307 133.191C510.704 97.6197 655.849 172.251 677.784 268.931" stroke="#0ABAB5" stroke-opacity="0.4"/>
<path d="M-262.946 812.558C-311.338 810.219 -294.841 717.436 -183.554 631.911C-44.4456 525.005 170.329 541.515 236.429 452.038C307.94 357.817 241.189 166.351 379.731 129.004C508.825 88.922 657.628 154.207 676.66 260.198" stroke="#0ABAB5" stroke-opacity="0.4"/>
<path d="M-270.189 809.476C-318.581 807.136 -302.084 714.353 -190.797 628.828C-51.6888 521.923 155.719 536.8 224.851 448.168C300.168 354.115 238.826 166.22 376.228 125.057C507.02 80.4638 659.481 136.403 675.609 251.705" stroke="#0ABAB5" stroke-opacity="0.4"/>
<path d="M-277.339 806.695C-325.731 804.355 -309.235 711.572 -197.948 626.047C-58.8392 519.142 141.202 532.387 213.366 444.6C292.488 350.715 236.555 166.39 372.818 121.412C505.308 72.3074 661.427 118.901 674.652 243.514" stroke="#0ABAB5" stroke-opacity="0.4"/>
<path d="M-284.412 804.17C-332.804 801.83 -316.307 709.047 -205.02 623.523C-65.9115 516.617 126.762 528.23 201.959 441.289C284.887 347.57 234.363 166.817 369.486 118.022C503.674 64.4071 663.451 101.654 673.772 235.579" stroke="#0ABAB5" stroke-opacity="0.4"/>
<path d="M-291.399 801.929C-339.791 799.59 -323.294 706.807 -212.007 621.282C-72.8989 514.376 112.408 524.358 190.637 438.262C277.37 344.711 232.255 167.529 366.24 114.917C502.124 56.7914 665.56 84.6927 672.977 227.928" stroke="#0ABAB5" stroke-opacity="0.4"/>
<path d="M-298.29 800.002C-346.682 797.662 -330.185 704.879 -218.898 619.355C-79.7897 512.449 98.1506 520.798 179.412 435.547C269.95 342.164 230.244 168.553 363.089 112.125C500.672 49.4885 667.766 68.0439 672.279 220.59" stroke="#0ABAB5" stroke-opacity="0.4"/>
<path d="M-305.077 798.411C-353.469 796.071 -336.972 703.288 -225.685 617.764C-86.5769 510.858 83.9964 517.576 168.29 433.17C262.634 339.954 228.337 169.914 360.043 109.67C499.323 42.5223 670.075 51.7318 671.685 213.589" stroke="#0ABAB5" stroke-opacity="0.4"/>
<path d="M-311.757 797.175C-360.149 794.835 -343.652 702.052 -232.365 616.528C-93.2569 509.622 69.9495 514.707 157.276 431.147C255.424 338.099 226.536 171.629 357.103 107.569C498.081 35.9108 672.491 35.7743 671.197 206.942" stroke="#0ABAB5" stroke-opacity="0.4"/>
<path d="M-318.325 796.302C-366.717 793.963 -350.22 701.18 -238.933 615.655C-99.825 508.749 56.0145 512.203 146.373 429.487C248.327 336.607 224.848 173.708 354.276 105.832C496.951 29.6626 675.02 20.1801 670.822 200.659" stroke="#0ABAB5" stroke-opacity="0.4"/>
</svg>
