<svg width="728" height="1039" viewBox="0 0 728 1039" fill="none" xmlns="http://www.w3.org/2000/svg">
<path d="M-172.22 1361.45C-253.206 1357.54 -225.598 1202.26 -39.356 1059.13C193.446 880.225 639.179 926.972 714.277 767.328C789.375 607.684 614.301 245.428 859.498 227.633C1055.66 213.398 1261.83 432.14 1327.69 500.444" stroke="#0ABAB5" stroke-opacity="0.4"/>
<path d="M-362.234 1291.78C-443.219 1287.87 -415.611 1132.59 -229.37 989.465C3.43278 810.555 251.906 813.603 408.198 676.591C585.19 521.433 554.949 254.793 769.644 134.814C1011.26 -0.207018 1315.38 -31.717 1303.5 285.902" stroke="#0ABAB5" stroke-opacity="0.4"/>
<path d="M-184.678 1355.18C-265.664 1351.27 -238.056 1195.99 -51.814 1052.87C180.988 873.956 614.393 917.971 694.565 759.742C776.032 600.378 610.009 244.098 853.3 219.917C1052.3 198.133 1264.59 401.234 1325.6 485.12" stroke="#0ABAB5" stroke-opacity="0.4"/>
<path d="M-197.112 1349.01C-278.097 1345.09 -250.489 1189.82 -64.2473 1046.69C168.555 867.777 589.631 909.062 674.878 752.247C762.713 593.164 605.742 242.86 847.127 212.292C1048.97 182.958 1267.38 370.419 1323.53 469.887" stroke="#0ABAB5" stroke-opacity="0.4"/>
<path d="M-209.512 1342.93C-290.498 1339.01 -262.89 1183.74 -76.6481 1040.61C156.154 861.699 564.901 900.252 655.223 744.852C749.426 586.049 601.508 241.721 840.986 204.767C1045.67 167.884 1270.2 339.704 1321.49 454.755" stroke="#0ABAB5" stroke-opacity="0.4"/>
<path d="M-221.882 1336.96C-302.867 1333.04 -275.259 1177.77 -89.0173 1034.64C143.785 855.73 540.203 891.553 635.6 737.567C736.171 579.044 597.305 240.692 834.877 197.351C1042.4 152.919 1273.06 309.098 1319.49 439.732" stroke="#0ABAB5" stroke-opacity="0.4"/>
<path d="M-234.214 1331.11C-315.199 1327.2 -287.591 1171.92 -101.349 1028.79C131.453 849.884 515.542 882.975 616.014 730.404C722.953 572.162 593.139 239.785 828.805 190.058C1039.17 138.077 1275.95 278.615 1317.52 424.831" stroke="#0ABAB5" stroke-opacity="0.4"/>
<path d="M-246.502 1325.4C-327.488 1321.49 -299.88 1166.21 -113.638 1023.08C119.164 844.172 490.925 874.532 596.471 723.375C709.779 565.414 589.017 239.013 822.776 182.9C1035.98 123.37 1278.88 248.267 1315.59 410.065" stroke="#0ABAB5" stroke-opacity="0.4"/>
<path d="M-258.747 1319.84C-339.733 1315.93 -312.125 1160.65 -125.883 1017.52C106.919 838.612 466.351 866.241 576.972 716.499C696.648 558.817 584.938 238.393 816.791 175.893C1032.83 108.814 1281.86 218.07 1313.71 395.45" stroke="#0ABAB5" stroke-opacity="0.4"/>
<path d="M-270.869 1314.68C-351.855 1310.77 -324.247 1155.49 -138.005 1012.36C94.7973 833.454 441.901 858.351 557.596 710.023C683.64 552.622 580.983 238.174 810.929 169.287C1029.81 94.6588 1284.96 188.275 1311.95 381.237" stroke="#0ABAB5" stroke-opacity="0.4"/>
<path d="M-282.836 1310.03C-363.821 1306.11 -336.213 1150.84 -149.971 1007.71C82.831 828.799 417.606 850.966 538.375 704.052C670.788 546.932 577.183 238.459 805.223 163.186C1026.95 81.0087 1288.22 158.984 1310.35 367.528" stroke="#0ABAB5" stroke-opacity="0.4"/>
<path d="M-294.672 1305.8C-375.658 1301.89 -348.05 1146.61 -161.808 1003.48C70.9945 824.574 393.44 844.009 519.285 698.51C658.066 541.67 573.513 239.174 799.646 157.514C1024.21 67.7873 1291.61 130.122 1308.88 354.248" stroke="#0ABAB5" stroke-opacity="0.4"/>
<path d="M-306.364 1302.05C-387.35 1298.14 -359.742 1142.86 -173.5 999.734C59.3024 820.824 369.419 837.528 500.338 693.444C645.488 536.884 569.987 240.364 794.214 152.318C1021.62 55.042 1295.14 101.736 1307.55 341.444" stroke="#0ABAB5" stroke-opacity="0.4"/>
<path d="M-317.896 1298.83C-398.882 1294.91 -371.274 1139.64 -185.032 996.509C47.7703 817.599 345.559 831.572 481.552 688.902C633.07 532.623 566.621 242.078 788.942 147.645C1019.19 42.8208 1298.83 73.8738 1306.38 329.164" stroke="#0ABAB5" stroke-opacity="0.4"/>
<path d="M-329.254 1296.17C-410.24 1292.25 -382.632 1136.97 -196.39 993.847C36.4124 814.937 321.872 826.179 462.94 684.923C620.827 528.924 563.43 244.356 783.844 143.536C1016.93 31.1626 1302.69 46.5749 1305.39 317.447" stroke="#0ABAB5" stroke-opacity="0.4"/>
<path d="M-340.434 1294.1C-421.42 1290.18 -393.812 1134.91 -207.57 991.778C25.2326 812.868 298.363 821.379 444.506 681.538C608.761 525.819 560.416 247.227 778.924 140.021C1014.85 20.0978 1306.74 19.8693 1304.57 306.324" stroke="#0ABAB5" stroke-opacity="0.4"/>
<path d="M-351.426 1292.64C-432.411 1288.72 -404.803 1133.45 -218.561 990.317C14.2408 811.407 275.043 817.187 426.26 678.76C596.884 523.322 557.591 250.705 774.192 137.113C1012.96 9.64104 1310.97 -6.22817 1303.94 295.809" stroke="#0ABAB5" stroke-opacity="0.4"/>
</svg>
