<svg width="1760" height="912" viewBox="0 0 1760 912" fill="none" xmlns="http://www.w3.org/2000/svg">
<path d="M-410.332 971C-510.936 939.287 -416.385 776.613 -126.494 681.018C235.869 561.524 779.886 763.979 935.995 612.519C1092.11 461.058 1010.74 0.588611 1326.74 63.7605C1579.55 114.298 1755.34 426.301 1812.1 524.23" stroke="#0ABAB5" stroke-opacity="0.4"/>
<path d="M-623.107 829.593C-723.711 797.881 -629.159 635.207 -339.269 539.612C23.0949 420.118 335.21 507.486 584.985 408.542C867.841 296.493 932.301 -9.09967 1249.16 -69.4335C1605.75 -137.331 2001.33 -69.4333 1864.14 278.392" stroke="#0ABAB5" stroke-opacity="0.4"/>
<path d="M-423.631 959.844C-524.235 928.131 -429.684 765.457 -139.793 669.862C222.57 550.369 752.093 745.63 914.057 597.452C1078.09 448.455 1005.84 -2.33491 1321.89 53.1179C1581.18 96.2531 1770.71 393 1815.35 506.547" stroke="#0ABAB5" stroke-opacity="0.4"/>
<path d="M-436.929 948.797C-537.533 917.084 -442.982 754.41 -153.091 658.815C209.273 539.322 724.302 727.39 892.119 582.494C1064.07 435.961 1000.93 -5.14947 1317.05 42.5842C1582.82 78.3173 1786.08 359.807 1818.61 488.973" stroke="#0ABAB5" stroke-opacity="0.4"/>
<path d="M-450.227 937.872C-550.831 906.159 -456.28 743.485 -166.389 647.89C195.975 528.397 696.51 709.272 870.182 567.659C1050.06 423.588 996.032 -7.84218 1312.2 32.1724C1584.46 60.5032 1801.46 326.737 1821.86 471.521" stroke="#0ABAB5" stroke-opacity="0.4"/>
<path d="M-463.525 927.079C-564.129 895.366 -469.578 732.693 -179.688 637.098C182.676 517.604 668.717 691.286 848.243 552.955C1036.04 411.348 991.13 -10.4026 1307.35 21.8929C1586.1 42.8215 1816.83 293.798 1825.11 454.202" stroke="#0ABAB5" stroke-opacity="0.4"/>
<path d="M-476.824 916.435C-577.428 884.722 -482.877 722.048 -192.986 626.453C169.377 506.959 640.924 673.449 826.305 538.4C1022.02 399.256 986.227 -12.8147 1302.5 11.7616C1587.73 25.288 1832.21 261.008 1828.36 437.03" stroke="#0ABAB5" stroke-opacity="0.4"/>
<path d="M-490.122 905.953C-590.726 874.241 -496.175 711.567 -206.284 615.972C156.079 496.478 613.133 655.775 804.367 524.008C1008.01 387.327 981.325 -15.0636 1297.65 1.7936C1589.37 7.91781 1847.58 228.382 1831.62 420.022" stroke="#0ABAB5" stroke-opacity="0.4"/>
<path d="M-503.421 895.655C-604.025 863.942 -509.474 701.268 -219.583 605.673C142.78 486.18 585.34 638.284 782.428 509.799C993.99 375.582 976.422 -17.1295 1292.8 -7.99136C1591.01 -9.26936 1862.96 195.938 1834.87 403.197" stroke="#0ABAB5" stroke-opacity="0.4"/>
<path d="M-516.72 885.843C-617.324 854.13 -522.773 691.456 -232.882 595.861C129.482 476.368 557.547 621.279 760.49 496.076C979.973 364.322 971.52 -18.7092 1287.95 -17.2902C1592.65 -25.9704 1878.33 163.98 1838.12 386.857" stroke="#0ABAB5" stroke-opacity="0.4"/>
<path d="M-530.018 876.642C-630.622 844.93 -536.071 682.256 -246.18 586.661C116.184 467.167 529.756 604.885 738.552 482.965C965.957 353.674 966.618 -19.6775 1283.1 -25.9776C1594.28 -42.0601 1893.71 132.634 1841.37 371.13" stroke="#0ABAB5" stroke-opacity="0.4"/>
<path d="M-543.316 867.96C-643.92 836.247 -549.369 673.574 -259.479 577.979C102.885 458.485 501.963 589.01 716.614 470.372C951.94 343.545 961.715 -20.1272 1278.25 -34.1464C1595.92 -57.6311 1909.08 101.806 1844.62 355.921" stroke="#0ABAB5" stroke-opacity="0.4"/>
<path d="M-556.614 859.855C-657.218 828.142 -562.667 665.468 -272.776 569.873C89.587 450.379 474.171 573.712 694.676 458.356C937.924 333.992 956.813 -20.0002 1273.41 -41.7385C1597.56 -72.6253 1924.45 71.5556 1847.88 341.288" stroke="#0ABAB5" stroke-opacity="0.4"/>
<path d="M-569.914 852.384C-670.518 820.671 -575.967 657.997 -286.076 562.402C76.2873 442.908 446.378 559.048 672.737 446.975C923.906 325.073 951.91 -19.2387 1268.56 -48.6961C1599.19 -86.9852 1939.83 41.9392 1851.13 327.29" stroke="#0ABAB5" stroke-opacity="0.4"/>
<path d="M-583.211 845.595C-683.815 813.882 -589.264 651.209 -299.373 555.614C62.9904 436.12 418.587 545.066 650.8 436.275C909.891 316.837 947.009 -17.7949 1263.71 -54.9715C1600.83 -100.663 1955.2 13.0051 1854.38 313.975" stroke="#0ABAB5" stroke-opacity="0.4"/>
<path d="M-596.51 839.525C-697.114 807.812 -602.563 645.138 -312.672 549.543C49.6915 430.049 390.794 531.803 628.861 426.294C895.874 309.319 942.106 -15.6332 1258.86 -60.5288C1602.47 -113.622 1970.58 -15.2111 1857.63 301.377" stroke="#0ABAB5" stroke-opacity="0.4"/>
<path d="M-609.808 834.191C-710.412 802.478 -615.861 639.804 -325.97 544.209C36.3937 424.715 363.002 519.276 606.924 417.05C881.858 302.538 937.204 -12.7348 1254.01 -65.3495C1604.11 -125.845 1985.95 -42.6905 1860.89 289.516" stroke="#0ABAB5" stroke-opacity="0.4"/>
</svg>
