<svg width="280" height="38" viewBox="0 0 280 38" fill="none" xmlns="http://www.w3.org/2000/svg">
<path d="M268.468 11.235H260.689V8.13715H279.821V11.235H272.042V29.4914H268.468V11.235Z" fill="#0ABAB5"/>
<path d="M241.365 8.13715H244.939V16.6458H255.956V8.13715H259.53V29.4914H255.956V19.661H244.939V29.4914H241.365V8.13715Z" fill="#0ABAB5"/>
<path d="M229.714 29.9454C227.976 29.9454 226.448 29.6701 225.131 29.1193C223.841 28.5686 222.762 27.7976 221.893 26.8063C221.024 25.815 220.365 24.631 219.917 23.2542C219.496 21.8774 219.286 20.3767 219.286 18.752C219.286 17.1549 219.538 15.6818 220.043 14.3325C220.548 12.9557 221.248 11.7716 222.145 10.7803C223.07 9.78904 224.15 9.01803 225.383 8.46731C226.644 7.91659 228.018 7.64123 229.504 7.64123C231.438 7.64123 233.036 8.0405 234.297 8.83905C235.586 9.61006 236.61 10.6014 237.366 11.8129C238.151 13.0245 238.684 14.3463 238.964 15.7781C239.273 17.21 239.399 18.573 239.343 19.8672H223.07C223.042 20.8035 223.154 21.6984 223.407 22.552C223.659 23.3781 224.065 24.1216 224.626 24.7824C225.187 25.4158 225.902 25.9252 226.771 26.3107C227.639 26.6962 228.663 26.8889 229.84 26.8889C231.354 26.8889 232.587 26.5447 233.54 25.8563C234.521 25.1679 235.166 24.1216 235.474 22.7172H239.006C238.53 25.1404 237.479 26.9578 235.853 28.1694C234.227 29.3534 232.181 29.9454 229.714 29.9454ZM235.558 16.7694C235.502 15.9433 235.306 15.1586 234.97 14.4151C234.661 13.6716 234.227 13.0383 233.666 12.5151C233.134 11.9644 232.489 11.5376 231.732 11.2347C231.003 10.9043 230.19 10.739 229.293 10.739C228.368 10.739 227.527 10.9043 226.771 11.2347C226.042 11.5376 225.411 11.9644 224.878 12.5151C224.346 13.0658 223.925 13.7129 223.617 14.4564C223.309 15.1723 223.126 15.9433 223.07 16.7694H235.558Z" fill="#0ABAB5"/>
<path d="M189.201 26.1868H192.144C192.705 25.1955 193.223 23.9564 193.7 22.4694C194.176 20.9825 194.583 19.3578 194.919 17.5955C195.284 15.8057 195.564 13.9195 195.76 11.9369C195.956 9.92675 196.054 7.90285 196.054 5.86518V0H215.396V26.1868H218.718V36.8019H214.892V29.4911H193.027V36.8019H189.201V26.1868ZM211.402 26.1868V3.30433H199.923V7.55865C199.923 9.37603 199.825 11.2072 199.628 13.0521C199.46 14.8695 199.208 16.6042 198.872 18.2564C198.563 19.881 198.199 21.3817 197.778 22.7585C197.386 24.1354 196.965 25.2781 196.517 26.1868H211.402Z" fill="#0ABAB5"/>
<path d="M165.215 21.1479C163.673 20.9276 162.412 20.2392 161.431 19.0827C160.45 17.9262 159.959 16.4668 159.959 14.7045C159.959 12.6944 160.562 11.0973 161.767 9.91322C163 8.72917 164.668 8.13715 166.771 8.13715H177.787V29.4914H174.213V21.2718H169.462L162.818 29.4914H158.067L165.215 21.1479ZM174.213 18.2566V11.235H167.906C166.392 11.235 165.299 11.5516 164.626 12.1849C163.954 12.8183 163.617 13.6719 163.617 14.7458C163.617 15.8472 163.954 16.7146 164.626 17.348C165.299 17.9537 166.392 18.2566 167.906 18.2566H174.213Z" fill="#0ABAB5"/>
<path d="M145.742 29.9454C144.761 29.9454 143.836 29.8353 142.967 29.615C142.098 29.4222 141.327 29.0918 140.655 28.6237C140.01 28.1281 139.491 27.5085 139.099 26.765C138.734 25.994 138.552 25.0716 138.552 23.9976C138.552 22.7861 138.762 21.7948 139.183 21.0238C139.603 20.2527 140.15 19.6332 140.823 19.1651C141.524 18.6694 142.308 18.2977 143.177 18.0499C144.074 17.802 144.985 17.5955 145.911 17.4303C146.892 17.2375 147.817 17.0999 148.686 17.0173C149.583 16.9071 150.368 16.7694 151.04 16.6042C151.713 16.4115 152.246 16.1499 152.638 15.8194C153.03 15.4615 153.227 14.9521 153.227 14.2912C153.227 13.5202 153.073 12.9006 152.764 12.4325C152.484 11.9644 152.105 11.6064 151.629 11.3586C151.18 11.1108 150.662 10.9456 150.073 10.8629C149.513 10.7803 148.952 10.739 148.391 10.739C146.878 10.739 145.616 11.0282 144.607 11.6064C143.598 12.1571 143.051 13.2173 142.967 14.7868H139.393C139.449 13.4651 139.73 12.3499 140.234 11.4412C140.739 10.5325 141.411 9.80281 142.252 9.25209C143.093 8.67383 144.046 8.26079 145.112 8.01297C146.205 7.76514 147.368 7.64123 148.602 7.64123C149.583 7.64123 150.55 7.71007 151.503 7.84775C152.484 7.98543 153.367 8.27456 154.152 8.71514C154.937 9.12818 155.567 9.7202 156.044 10.4912C156.52 11.2622 156.759 12.2673 156.759 13.5064V24.4933C156.759 25.3194 156.801 25.9252 156.885 26.3107C156.997 26.6962 157.333 26.8889 157.894 26.8889C158.146 26.8889 158.511 26.8201 158.987 26.6824V29.4085C158.37 29.7664 157.516 29.9454 156.422 29.9454C155.497 29.9454 154.754 29.6976 154.194 29.202C153.661 28.6788 153.395 27.8389 153.395 26.6824C152.414 27.8389 151.265 28.6788 149.947 29.202C148.658 29.6976 147.256 29.9454 145.742 29.9454ZM146.541 26.8889C147.719 26.8889 148.728 26.7375 149.569 26.4346C150.41 26.1042 151.096 25.7049 151.629 25.2368C152.162 24.7411 152.554 24.2179 152.806 23.6672C153.059 23.089 153.185 22.552 153.185 22.0564V18.4629C152.736 18.8209 152.147 19.0687 151.419 19.2064C150.69 19.3441 149.919 19.468 149.106 19.5781C148.321 19.6883 147.522 19.7984 146.709 19.9085C145.896 20.0187 145.168 20.2114 144.523 20.4868C143.878 20.7622 143.346 21.1614 142.925 21.6846C142.533 22.1803 142.336 22.8687 142.336 23.7498C142.336 24.3281 142.449 24.8237 142.673 25.2368C142.925 25.6223 143.233 25.9389 143.598 26.1868C143.99 26.4346 144.439 26.6136 144.943 26.7237C145.448 26.8339 145.981 26.8889 146.541 26.8889Z" fill="#0ABAB5"/>
<path d="M119.279 8.13715H122.853V18.3393L132.818 8.13715H137.57L127.941 17.3893L138.705 29.4914H134.122L125.04 19.3306L122.853 21.4371V29.4914H119.279V8.13715Z" fill="#0ABAB5"/>
<path d="M107.376 29.9454C105.722 29.9454 104.25 29.6838 102.961 29.1607C101.699 28.6375 100.634 27.894 99.7651 26.9302C98.9241 25.9665 98.2794 24.8237 97.8309 23.502C97.4104 22.1803 97.2002 20.7071 97.2002 19.0825C97.2002 17.4854 97.4104 15.9984 97.8309 14.6216C98.2514 13.2173 98.8821 12.0057 99.723 10.9869C100.592 9.94049 101.657 9.12818 102.919 8.54992C104.208 7.94413 105.722 7.64123 107.46 7.64123C108.693 7.64123 109.842 7.79268 110.908 8.09558C112.001 8.37094 112.954 8.81151 113.767 9.41731C114.608 10.0231 115.295 10.7941 115.827 11.7303C116.36 12.639 116.696 13.7267 116.836 14.9934H113.136C112.856 13.6441 112.267 12.5977 111.37 11.8542C110.473 11.1108 109.268 10.739 107.754 10.739C106.465 10.739 105.385 10.9731 104.516 11.4412C103.647 11.9093 102.947 12.5289 102.414 13.2999C101.909 14.0709 101.545 14.9658 101.321 15.9847C101.097 16.976 100.984 18.0086 100.984 19.0825C100.984 20.0738 101.097 21.0375 101.321 21.9737C101.573 22.91 101.952 23.7498 102.456 24.4933C102.961 25.2092 103.605 25.7875 104.39 26.2281C105.203 26.6686 106.184 26.8889 107.334 26.8889C109.1 26.8889 110.473 26.4346 111.454 25.5259C112.463 24.6172 113.08 23.3368 113.304 21.6846H116.962C116.57 24.3556 115.575 26.407 113.977 27.8389C112.379 29.2433 110.179 29.9454 107.376 29.9454Z" fill="#0ABAB5"/>
<path d="M75.2612 8.13688H78.8352V11.0282H78.9193C79.508 9.84411 80.433 8.9905 81.6945 8.46731C82.9559 7.91659 84.3434 7.64123 85.8571 7.64123C87.539 7.64123 88.9967 7.94413 90.23 8.54992C91.4915 9.15571 92.5286 9.98179 93.3415 11.0282C94.1825 12.047 94.8132 13.231 95.2337 14.5803C95.6541 15.9296 95.8644 17.3615 95.8644 18.8759C95.8644 20.418 95.6541 21.8636 95.2337 23.2129C94.8412 24.5346 94.2245 25.7049 93.3836 26.7237C92.5707 27.715 91.5335 28.4998 90.2721 29.078C89.0387 29.6563 87.5951 29.9454 85.9412 29.9454C85.3806 29.9454 84.7779 29.8904 84.1332 29.7802C83.4885 29.6701 82.8437 29.4911 82.199 29.2433C81.5543 28.9954 80.9376 28.665 80.3489 28.252C79.7883 27.8114 79.3118 27.2744 78.9193 26.6411H78.8352V37.628H75.2612V8.13688ZM85.5628 26.8889C86.7681 26.8889 87.7913 26.6549 88.6322 26.1868C89.4732 25.7186 90.1459 25.0991 90.6505 24.3281C91.1551 23.5571 91.5195 22.6759 91.7437 21.6846C91.968 20.6933 92.0801 19.6745 92.0801 18.6281C92.0801 17.6368 91.94 16.6731 91.6596 15.7368C91.4074 14.7731 91.0009 13.9194 90.4403 13.176C89.9077 12.4325 89.2069 11.8405 88.3379 11.3999C87.497 10.9593 86.5018 10.739 85.3526 10.739C84.1472 10.739 83.1241 10.9731 82.2831 11.4412C81.4422 11.9093 80.7554 12.5289 80.2228 13.2999C79.6902 14.0434 79.2978 14.897 79.0455 15.8607C78.8212 16.8245 78.7091 17.802 78.7091 18.7933C78.7091 19.8397 78.8352 20.8585 79.0875 21.8498C79.3398 22.8136 79.7322 23.6672 80.2648 24.4107C80.8255 25.1542 81.5403 25.76 82.4093 26.2281C83.2782 26.6686 84.3294 26.8889 85.5628 26.8889Z" fill="#0ABAB5"/>
<path d="M58.0211 38C57.6007 38 57.1802 37.9725 56.7597 37.9174C56.3392 37.8623 55.9328 37.7659 55.5403 37.6283V34.4065C55.8767 34.5167 56.2131 34.6268 56.5495 34.737C56.9139 34.8471 57.2783 34.9022 57.6427 34.9022C58.3715 34.9022 58.9602 34.737 59.4087 34.4065C59.8572 34.0761 60.2496 33.5942 60.586 32.9609L62.0577 29.3674L53.438 8.13715H57.4745L63.8236 25.6088H63.9077L70.0046 8.13715H73.7888L64.3282 32.3C63.9077 33.3464 63.4873 34.2276 63.0668 34.9435C62.6744 35.6594 62.2259 36.2377 61.7213 36.6783C61.2448 37.1464 60.6981 37.4768 60.0814 37.6696C59.4928 37.8899 58.806 38 58.0211 38Z" fill="#0ABAB5"/>
<path d="M28.5264 8.13715H33.6561L40.2575 25.4436H40.3416L46.943 8.13715H52.0728V29.4914H48.4988V12.5567L41.9394 29.4914H38.6597L32.1004 12.5567V29.4914H28.5264V8.13715Z" fill="#0ABAB5"/>
<path d="M11.6891 0H16.1041L27.8352 29.4911H23.4203L20.1406 20.6107H7.44235L4.07858 29.4911H0L11.6891 0ZM18.8792 17.3064L13.8756 3.55215H13.7915L8.70377 17.3064H18.8792Z" fill="#0ABAB5"/>
</svg>
