<svg width="71" height="71" viewBox="0 0 71 71" fill="none" xmlns="http://www.w3.org/2000/svg">
<g filter="url(#filter0_d_5234_10951)">
<path d="M35.5003 34.0212C33.5388 34.0212 31.6577 33.242 30.2707 31.855C28.8837 30.468 28.1045 28.5868 28.1045 26.6253C28.1045 24.6638 28.8837 22.7827 30.2707 21.3957C31.6577 20.0087 33.5388 19.2295 35.5003 19.2295C37.4618 19.2295 39.343 20.0087 40.73 21.3957C42.117 22.7827 42.8962 24.6638 42.8962 26.6253C42.8962 27.5966 42.7049 28.5583 42.3332 29.4556C41.9615 30.3529 41.4167 31.1682 40.73 31.855C40.0432 32.5417 39.2279 33.0865 38.3306 33.4582C37.4333 33.8299 36.4716 34.0212 35.5003 34.0212ZM35.5003 5.91699C30.0081 5.91699 24.7409 8.09876 20.8573 11.9823C16.9738 15.8659 14.792 21.1331 14.792 26.6253C14.792 42.1566 35.5003 65.0837 35.5003 65.0837C35.5003 65.0837 56.2087 42.1566 56.2087 26.6253C56.2087 21.1331 54.0269 15.8659 50.1433 11.9823C46.2598 8.09876 40.9925 5.91699 35.5003 5.91699Z" fill="#0ABAB5"/>
</g>
<circle cx="35.4997" cy="26.6247" r="10.3542" fill="white"/>
<g filter="url(#filter1_d_5234_10951)">
<circle cx="35.4997" cy="26.6247" r="3.69792" fill="#0ABAB5"/>
</g>
<defs>
<filter id="filter0_d_5234_10951" x="10.792" y="1.91699" width="49.4165" height="67.167" filterUnits="userSpaceOnUse" color-interpolation-filters="sRGB">
<feFlood flood-opacity="0" result="BackgroundImageFix"/>
<feColorMatrix in="SourceAlpha" type="matrix" values="0 0 0 0 0 0 0 0 0 0 0 0 0 0 0 0 0 0 127 0" result="hardAlpha"/>
<feOffset/>
<feGaussianBlur stdDeviation="2"/>
<feComposite in2="hardAlpha" operator="out"/>
<feColorMatrix type="matrix" values="0 0 0 0 0.00392157 0 0 0 0 0 0 0 0 0 0.172549 0 0 0 0.1 0"/>
<feBlend mode="normal" in2="BackgroundImageFix" result="effect1_dropShadow_5234_10951"/>
<feBlend mode="normal" in="SourceGraphic" in2="effect1_dropShadow_5234_10951" result="shape"/>
</filter>
<filter id="filter1_d_5234_10951" x="27.8018" y="18.9268" width="15.396" height="15.3955" filterUnits="userSpaceOnUse" color-interpolation-filters="sRGB">
<feFlood flood-opacity="0" result="BackgroundImageFix"/>
<feColorMatrix in="SourceAlpha" type="matrix" values="0 0 0 0 0 0 0 0 0 0 0 0 0 0 0 0 0 0 127 0" result="hardAlpha"/>
<feOffset/>
<feGaussianBlur stdDeviation="2"/>
<feComposite in2="hardAlpha" operator="out"/>
<feColorMatrix type="matrix" values="0 0 0 0 0.00392157 0 0 0 0 0 0 0 0 0 0.172549 0 0 0 0.25 0"/>
<feBlend mode="normal" in2="BackgroundImageFix" result="effect1_dropShadow_5234_10951"/>
<feBlend mode="normal" in="SourceGraphic" in2="effect1_dropShadow_5234_10951" result="shape"/>
</filter>
</defs>
</svg>
