<svg width="400" height="400" viewBox="0 0 400 400" fill="none" xmlns="http://www.w3.org/2000/svg">
<rect width="400" height="400" rx="75" fill="#0ABAB5"/>
<path d="M278.648 93.2004C247.082 78.0361 224.571 96.7165 199.998 96.7165C175.425 96.7165 152.737 78.3897 121.878 93.2004C77.2891 114.611 77.2891 159.338 77.2891 184.775C77.2891 237.556 123.646 310.293 148.219 312.611C172.793 314.929 174.855 282.617 199.998 282.617C225.141 282.617 227.203 314.929 251.777 312.611C279.375 310.018 322.707 237.556 322.707 184.775C322.707 159.338 322.707 114.356 278.648 93.2004Z" fill="#32C8C1"/>
<path d="M278.648 93.2017C247.082 78.0374 224.571 96.6981 199.998 96.6981C175.425 96.6981 152.737 78.4106 121.878 93.2017C77.2891 114.612 77.2891 159.32 77.2891 184.757C77.2891 237.537 123.646 310.314 148.219 312.612C172.793 314.911 174.855 282.618 199.998 282.618C225.141 282.618 227.203 314.911 251.777 312.612C279.375 310.02 322.707 237.537 322.707 184.757C322.707 159.32 322.707 114.357 278.648 93.2017Z" stroke="white" stroke-width="12.5" stroke-linecap="round" stroke-linejoin="round"/>
<path d="M170.532 142.25C193.613 151.109 206.42 150.893 229.461 142.25" stroke="white" stroke-width="12.5" stroke-linecap="round" stroke-linejoin="round"/>
</svg>
