<svg width="920" height="608" viewBox="0 0 920 608" fill="none" xmlns="http://www.w3.org/2000/svg">
<path d="M1714.15 261.029C1606.22 262.909 1343.14 293.089 1154.33 398.771C918.312 530.875 679.076 708.892 577.582 534.097C476.088 359.301 332.707 305.332 183.688 308.554C34.6691 311.776 -69.2415 115.232 57.2233 72.5402C183.688 29.8483 673.438 272.306 873.204 72.5402C1072.97 -127.226 1094.72 148.258 1331.54 182.089C1520.99 209.154 1695.63 193.366 1759.26 182.089" stroke="#0ABAB5"/>
<path d="M1356.74 279.333C1295.04 280.406 1144.67 297.644 1036.75 358.006C901.848 433.46 765.106 535.137 707.094 435.3C649.082 335.462 567.128 304.637 481.952 306.477C396.775 308.318 337.382 196.058 409.667 171.674C481.952 147.289 761.883 285.774 876.065 171.674C990.248 57.5738 1002.68 214.921 1138.04 234.245C1246.33 249.703 1346.15 240.686 1382.52 234.245" stroke="#0ABAB5"/>
<path d="M1681.66 262.693C1577.93 264.5 1325.09 293.503 1143.64 395.065C916.815 522.019 686.897 693.096 589.356 525.115C491.815 357.134 354.019 305.269 210.803 308.365C67.5883 311.462 -32.2753 122.58 89.2641 81.5525C210.803 40.5248 681.479 273.531 873.464 81.5525C1065.45 -110.426 1086.35 154.318 1313.95 186.831C1496.02 212.841 1663.86 197.668 1725.01 186.831" stroke="#0ABAB5"/>
<path d="M1649.17 264.357C1549.64 266.09 1307.05 293.917 1132.95 391.359C915.319 513.163 694.718 677.3 601.13 516.133C507.542 354.967 375.33 305.206 237.919 308.176C100.507 311.147 4.69097 129.928 121.305 90.5644C237.919 51.2012 689.52 274.755 873.725 90.5644C1057.93 -93.626 1077.98 160.379 1296.36 191.572C1471.06 216.527 1632.09 201.97 1690.77 191.572" stroke="#0ABAB5"/>
<path d="M1616.68 266.021C1521.35 267.681 1289.01 294.331 1122.26 387.654C913.821 504.307 702.538 661.504 612.902 507.152C523.267 352.8 396.64 305.143 265.032 307.988C133.425 310.833 41.6553 137.276 153.344 99.5768C265.032 61.8779 697.559 275.979 873.984 99.5768C1050.41 -76.8257 1069.62 166.439 1278.77 196.314C1446.08 220.213 1600.31 206.272 1656.51 196.314" stroke="#0ABAB5"/>
<path d="M1584.18 267.685C1493.06 269.272 1270.97 294.745 1111.57 383.948C912.325 495.451 710.359 645.709 624.677 498.171C538.994 350.633 417.951 305.08 292.147 307.799C166.344 310.519 78.6215 144.624 185.384 108.589C292.147 72.5544 705.599 277.204 874.244 108.589C1042.89 -60.0258 1061.25 172.499 1261.18 201.055C1421.12 223.9 1568.54 210.574 1622.27 201.055" stroke="#0ABAB5"/>
<path d="M1551.69 269.349C1464.77 270.862 1252.92 295.159 1100.88 380.242C910.828 486.595 718.18 629.913 636.45 489.189C554.721 348.465 439.261 305.016 319.262 307.61C199.262 310.204 115.587 151.971 217.424 117.601C319.262 83.2306 713.639 278.428 874.504 117.601C1035.37 -43.226 1052.88 178.56 1243.58 205.796C1396.15 227.586 1536.77 214.875 1588.02 205.796" stroke="#0ABAB5"/>
<path d="M1519.2 271.013C1436.48 272.453 1234.88 295.573 1090.19 376.536C909.331 477.739 726.001 614.117 648.224 480.207C570.448 346.298 460.573 304.953 346.377 307.421C232.181 309.89 152.553 159.319 249.465 126.613C346.377 93.9072 721.68 279.652 874.764 126.613C1027.85 -26.426 1044.51 184.62 1225.99 210.538C1371.18 231.272 1505 219.177 1553.77 210.538" stroke="#0ABAB5"/>
<path d="M1486.71 272.677C1408.2 274.043 1216.84 295.987 1079.5 372.83C907.835 468.883 733.822 598.321 659.999 471.226C586.175 344.131 481.884 304.89 373.492 307.232C265.101 309.575 189.519 166.667 281.506 135.625C373.492 104.583 729.721 280.876 875.025 135.625C1020.33 -9.62621 1036.15 190.68 1208.4 215.279C1346.21 234.958 1473.23 223.479 1519.52 215.279" stroke="#0ABAB5"/>
<path d="M1454.21 274.341C1379.91 275.634 1198.8 296.401 1068.82 369.124C906.339 460.027 741.644 582.525 671.773 462.244C601.902 341.964 503.196 304.826 400.608 307.044C298.02 309.261 226.485 174.014 313.547 144.637C400.608 115.26 737.762 282.101 875.286 144.637C1012.81 7.17378 1027.78 196.74 1190.81 220.02C1321.24 238.644 1441.46 227.78 1485.27 220.02" stroke="#0ABAB5"/>
<path d="M1421.72 276.005C1351.62 277.225 1180.75 296.816 1058.13 365.418C904.841 451.172 749.463 566.729 683.545 453.263C617.627 339.797 524.505 304.764 427.721 306.855C330.937 308.947 263.45 181.363 345.585 153.65C427.721 125.937 745.801 283.325 875.544 153.65C1005.29 23.9741 1019.41 202.801 1173.22 224.762C1296.27 242.331 1409.69 232.082 1451.02 224.762" stroke="#0ABAB5"/>
<path d="M1389.23 277.669C1323.33 278.815 1162.71 297.23 1047.44 361.712C903.344 442.315 757.284 550.933 695.319 444.281C633.354 337.63 545.817 304.7 454.837 306.666C363.856 308.632 300.416 188.71 377.626 162.662C454.837 136.613 753.842 284.549 875.805 162.662C997.767 40.7738 1011.05 208.861 1155.63 229.503C1271.3 246.017 1377.92 236.384 1416.77 229.503" stroke="#0ABAB5"/>
</svg>
