<svg width="563" height="427" viewBox="0 0 563 427" fill="none" xmlns="http://www.w3.org/2000/svg">
<path d="M848.671 257.301C796.753 249.867 668.236 244.026 569.511 280.137C446.104 325.274 317.606 392.186 282.423 300.507C247.24 208.828 182.635 171.868 110.908 161.906C39.182 151.943 4.51912 49.6459 68.4753 38.9348C132.431 28.2238 348.617 182.341 459.863 101.949C571.108 21.5577 560.266 155.374 671.244 189.89C760.027 217.502 845.01 223.416 876.404 222.921" stroke="#0ABAB5"/>
<path d="M675.822 238.478C646.146 234.229 572.689 230.884 516.263 251.503C445.731 277.277 372.29 315.487 352.174 263.119C332.058 210.752 295.13 189.638 254.133 183.943C213.135 178.248 193.316 119.815 229.871 113.702C266.426 107.588 390.001 195.63 453.581 149.719C517.16 103.809 510.971 180.241 574.406 199.963C625.153 215.74 673.727 219.123 691.671 218.843" stroke="#0ABAB5"/>
<path d="M832.957 255.59C783.061 248.445 659.549 242.832 564.669 277.533C446.069 320.911 322.577 385.213 288.763 297.108C254.949 209.003 192.86 173.484 123.928 163.909C54.995 154.335 21.6815 56.0249 83.1466 45.7318C144.612 35.4387 352.379 183.549 459.291 106.292C566.203 29.035 555.784 157.635 662.44 190.805C747.765 217.342 829.438 223.025 859.609 222.55" stroke="#0ABAB5"/>
<path d="M817.243 253.878C769.369 247.023 650.863 241.636 559.828 274.93C446.035 316.547 327.548 378.24 295.104 293.708C262.66 209.177 203.087 175.099 136.948 165.912C70.8089 156.725 38.8449 62.4035 97.819 52.5283C156.793 42.6531 356.141 184.756 458.72 110.634C561.298 36.5119 551.302 159.895 653.636 191.721C735.504 217.181 813.867 222.635 842.815 222.179" stroke="#0ABAB5"/>
<path d="M801.529 252.168C755.678 245.602 642.177 240.442 554.988 272.327C446.001 312.184 332.519 371.268 301.445 290.31C270.371 209.352 213.314 176.715 149.968 167.916C86.6228 159.117 56.0083 68.783 112.491 59.3257C168.974 49.8685 359.903 185.965 458.149 114.977C556.394 43.9897 546.821 162.156 644.833 192.637C723.242 217.022 798.296 222.245 826.021 221.809" stroke="#0ABAB5"/>
<path d="M785.816 250.457C741.986 244.181 633.491 239.248 550.147 269.725C445.967 307.821 337.49 364.295 307.786 286.912C278.082 209.528 223.541 178.33 162.989 169.92C102.437 161.509 73.1717 75.1622 127.164 66.1229C181.156 57.0836 363.665 187.173 457.577 119.32C551.49 51.4673 542.34 164.417 636.029 193.553C710.981 216.862 782.725 221.855 809.227 221.438" stroke="#0ABAB5"/>
<path d="M770.102 248.745C728.295 242.758 624.805 238.053 545.306 267.121C445.934 303.457 342.461 357.322 314.127 283.512C285.793 209.702 233.768 179.945 176.009 171.922C118.251 163.9 90.3351 81.5408 141.836 72.9194C193.337 64.2981 367.427 188.381 457.006 123.663C546.585 58.9442 537.858 166.677 627.226 194.468C698.72 216.701 767.153 221.464 792.433 221.067" stroke="#0ABAB5"/>
<path d="M754.389 247.034C714.603 241.337 616.119 236.858 540.466 264.518C445.9 299.093 347.433 350.35 320.468 280.113C293.504 209.877 243.995 181.561 189.03 173.926C134.065 166.291 107.498 87.9199 156.508 79.7164C205.518 71.513 371.189 189.589 456.435 128.005C541.681 66.4216 533.377 168.937 618.422 195.384C686.458 216.541 751.582 221.074 775.639 220.696" stroke="#0ABAB5"/>
<path d="M738.676 245.323C700.913 239.915 607.434 235.663 535.626 261.915C445.867 294.73 352.405 343.377 326.81 276.715C301.215 210.052 254.222 183.176 202.051 175.929C149.88 168.682 124.663 94.2991 171.182 86.5136C217.701 78.7281 374.953 190.797 455.865 132.348C536.777 73.8992 528.897 171.198 609.62 196.3C674.198 216.381 736.012 220.684 758.846 220.326" stroke="#0ABAB5"/>
<path d="M722.962 243.611C687.221 238.493 598.748 234.468 530.785 259.312C445.833 290.366 357.376 336.404 333.151 273.315C308.926 210.227 264.449 184.791 215.071 177.932C165.693 171.073 141.826 100.678 185.854 93.3101C229.882 85.9425 378.715 192.005 455.294 136.691C531.873 81.3761 524.415 173.458 600.816 197.215C661.937 216.22 720.441 220.293 742.053 219.954" stroke="#0ABAB5"/>
<path d="M707.248 241.901C673.529 237.072 590.061 233.274 525.944 256.71C445.798 286.004 362.346 329.433 339.491 269.918C316.636 210.403 274.675 186.407 228.091 179.937C181.506 173.466 158.989 107.058 200.525 100.108C242.062 93.1584 382.476 193.214 454.722 141.034C526.968 88.8544 519.933 175.72 592.012 198.132C649.675 216.061 704.869 219.904 725.258 219.585" stroke="#0ABAB5"/>
<path d="M691.534 240.189C659.837 235.65 581.375 232.079 521.103 254.106C445.764 281.64 367.318 322.459 345.832 266.518C324.347 210.577 284.902 188.022 241.111 181.939C197.32 175.856 176.152 113.436 215.198 106.905C254.244 100.373 386.238 194.422 454.151 145.377C522.063 96.3313 515.452 177.98 583.208 199.047C637.413 215.9 689.297 219.514 708.464 219.213" stroke="#0ABAB5"/>
</svg>
