<svg width="917" height="679" viewBox="0 0 917 679" fill="none" xmlns="http://www.w3.org/2000/svg">
<path d="M1472.79 3.0304C1136.39 -22.469 1120.69 149.072 897.175 322.931C673.659 496.791 410.523 234.07 110.009 291.25C-130.402 336.995 89.8407 500.104 159.347 598.016C273.115 758.278 543.735 548.253 648.99 652.105C754.244 755.957 1302.84 526.411 1563.99 398.657" stroke="#0ABAB5"/>
<path d="M1147.82 255.435C977.647 242.587 969.706 329.021 856.638 416.623C743.57 504.226 610.46 371.849 458.442 400.66C336.828 423.709 448.24 505.895 483.4 555.23C540.951 635.981 677.847 530.156 731.091 582.484C784.335 634.811 1061.85 519.15 1193.95 454.779" stroke="#0ABAB5"/>
<path d="M1418.62 45.0966C1109.93 21.7057 1095.53 179.062 890.419 338.545C685.31 498.029 443.845 257.032 168.081 309.484C-52.5307 351.446 149.574 501.068 213.356 590.883C317.754 737.894 566.087 545.236 662.673 640.5C759.259 735.765 1262.68 525.2 1502.31 408.009" stroke="#0ABAB5"/>
<path d="M1364.46 87.1666C1083.48 65.8843 1070.36 209.056 883.663 354.163C696.963 499.27 477.168 279.997 226.153 327.722C25.3413 365.901 209.307 502.035 267.365 583.755C362.394 717.514 588.439 542.222 676.357 628.899C764.275 715.577 1222.51 523.992 1440.64 417.366" stroke="#0ABAB5"/>
<path d="M1310.3 129.233C1057.02 110.059 1045.2 239.046 876.907 369.777C708.615 500.508 510.492 302.959 284.226 345.955C103.213 380.352 269.041 502.999 321.374 576.623C407.033 697.129 610.792 539.205 690.041 617.294C769.29 695.384 1182.35 522.781 1378.97 426.718" stroke="#0ABAB5"/>
<path d="M1256.14 171.301C1030.56 154.236 1020.03 269.039 870.151 385.393C720.267 501.748 543.814 325.923 342.298 364.191C181.085 394.805 328.774 503.965 375.383 569.492C451.673 676.747 633.143 536.189 703.724 605.691C774.305 675.194 1142.18 521.571 1317.3 436.072" stroke="#0ABAB5"/>
<path d="M1201.98 213.369C1004.1 198.412 994.87 299.031 863.394 401.009C731.918 502.988 577.137 348.887 400.37 382.426C258.956 409.258 388.507 504.931 429.392 562.362C496.312 656.365 655.495 533.173 717.407 594.089C779.32 655.004 1102.01 520.362 1255.62 445.427" stroke="#0ABAB5"/>
</svg>
