<svg width="151" height="304" viewBox="0 0 151 304" fill="none" xmlns="http://www.w3.org/2000/svg">
<path d="M313.2 9.82681C239.1 38.6693 253.235 76.7303 223.434 136.451C193.632 196.171 110.942 167.129 52.8901 209.891C6.44849 244.101 69.8753 256.338 94.6218 270.071C135.127 292.548 171.257 220.343 204.207 231.697C237.157 243.051 330.386 138.383 372.881 84.6305" stroke="#0ABAB5"/>
<path d="M269.833 96.5758C232.354 111.177 239.47 130.358 224.359 160.494C209.248 190.631 167.472 176.051 138.094 197.658C114.592 214.944 146.644 221.066 159.143 227.971C179.6 239.273 197.92 202.837 214.567 208.536C231.214 214.236 278.42 161.386 299.943 134.249" stroke="#0ABAB5"/>
<path d="M305.973 24.2845C237.976 50.7534 250.941 85.6677 223.588 140.457C196.235 195.247 120.364 168.616 67.0908 207.852C24.4724 239.241 82.6702 250.459 105.375 263.053C142.539 283.668 175.701 217.424 205.934 227.836C236.167 238.248 321.725 142.217 360.725 92.8997" stroke="#0ABAB5"/>
<path d="M298.744 38.7441C236.851 62.8395 248.646 94.6071 223.741 144.466C198.836 194.325 129.784 170.104 81.2905 205.814C42.4954 234.383 95.464 244.582 116.128 256.038C149.95 274.791 180.144 214.508 207.659 223.977C235.175 233.447 313.063 146.052 348.567 101.171" stroke="#0ABAB5"/>
<path d="M291.517 53.2008C235.727 74.9226 246.353 103.544 223.896 148.472C201.44 193.4 139.207 171.59 95.4923 203.774C60.5204 229.522 108.26 238.701 126.882 249.02C157.363 265.91 184.588 211.589 209.387 220.116C234.185 228.643 304.403 149.884 336.412 109.439" stroke="#0ABAB5"/>
<path d="M284.289 67.6595C234.603 87.0077 244.058 112.482 224.051 152.48C204.043 192.478 148.629 173.077 109.693 201.736C78.5443 224.663 121.055 232.823 137.636 242.004C164.776 257.031 189.032 208.672 211.113 216.256C233.195 223.841 295.742 153.718 324.256 117.709" stroke="#0ABAB5"/>
<path d="M277.061 82.1181C233.479 99.0928 241.764 121.42 224.205 156.488C206.646 191.555 158.05 174.564 123.894 199.697C96.5683 219.804 133.849 226.945 148.389 234.988C172.188 248.153 193.476 205.755 212.84 212.397C232.204 219.039 287.081 157.553 312.099 125.979" stroke="#0ABAB5"/>
</svg>
