<svg width="261" height="588" viewBox="0 0 261 588" fill="none" xmlns="http://www.w3.org/2000/svg">
<path d="M607.111 19.0484C463.475 74.9571 490.874 148.735 433.106 264.498C375.338 380.26 215.051 323.965 102.523 406.855C12.4998 473.167 135.447 496.889 183.416 523.508C261.931 567.078 331.967 427.115 395.838 449.123C459.708 471.132 640.423 268.244 722.797 164.049" stroke="#0ABAB5"/>
<path d="M523.049 187.204C450.399 215.507 464.192 252.688 434.901 311.105C405.61 369.522 324.631 341.26 267.684 383.144C222.127 416.651 284.257 428.517 308.484 441.902C348.139 463.811 383.65 393.181 415.919 404.229C448.187 415.277 539.694 312.833 581.414 260.23" stroke="#0ABAB5"/>
<path d="M593.102 47.074C461.297 98.3817 486.428 166.06 433.406 272.265C380.384 378.47 233.315 326.847 130.05 402.903C47.4386 463.748 160.25 485.493 204.262 509.907C276.3 549.866 340.582 421.459 399.185 441.641C457.789 461.823 623.636 275.675 699.234 180.079" stroke="#0ABAB5"/>
<path d="M579.09 75.1017C459.116 121.808 481.98 183.387 433.704 280.035C385.428 376.682 251.577 329.731 157.576 398.953C82.3754 454.33 185.05 474.099 225.105 496.307C290.667 532.657 349.194 415.805 402.531 434.16C455.868 452.515 606.847 283.108 675.669 196.11" stroke="#0ABAB5"/>
<path d="M565.081 103.126C456.937 145.232 477.534 200.711 434.004 287.801C390.474 374.891 269.841 332.612 185.104 394.999C117.314 444.909 209.853 462.703 245.951 482.705C305.036 515.444 357.809 410.148 405.879 426.676C453.948 443.205 590.059 290.538 652.106 212.139" stroke="#0ABAB5"/>
<path d="M551.071 131.153C454.759 168.658 473.087 218.037 434.304 295.57C395.521 373.102 288.105 335.495 212.632 391.048C152.253 435.49 234.655 451.308 266.796 469.104C319.405 498.234 366.424 404.493 409.226 419.195C452.029 433.896 573.272 297.971 628.543 228.17" stroke="#0ABAB5"/>
<path d="M537.06 159.18C452.579 192.083 468.64 235.363 434.603 303.338C400.566 371.313 306.368 338.379 240.159 387.097C187.191 426.071 259.457 439.913 287.641 455.504C333.772 481.023 375.037 398.838 412.573 411.713C450.109 424.588 556.483 305.403 604.979 244.201" stroke="#0ABAB5"/>
</svg>
